<svg xmlns="http://www.w3.org/2000/svg" style="display:none">

    <!-- ============================================================
         ICONOS BASE DEL DESIGN SYSTEM (ya generados antes)
    ============================================================ -->
    <!-- SEARCH -->
    <symbol id="i-search" viewBox="0 0 24 24">
        <path d="M15.5 15.5L20 20" stroke="currentColor" stroke-width="2" stroke-linecap="round"/>
        <circle cx="11" cy="11" r="6" stroke="currentColor" stroke-width="2"/>
    </symbol>

    <!-- ARROW -->
    <symbol id="i-arrow-right" viewBox="0 0 24 24">
        <path d="M5 12h14M13 6l6 6-6 6" stroke="currentColor" stroke-width="2" stroke-linecap="round" stroke-linejoin="round"/>
    </symbol>

    <!-- ... (resto de iconos base ya generados) ... -->


    <!-- ============================================================
         ICONOS CONVERTIDOS DESDE TU CARPETA /icons
    ============================================================ -->

    <!-- CIERRE -->
    <symbol id="i-cierre" viewBox="0 0 24 24">
        <path d="M6 6l12 12M18 6L6 18" stroke="currentColor" stroke-width="2" stroke-linecap="round"/>
    </symbol>

    <!-- DEFECTOS -->
    <symbol id="i-defectos" viewBox="0 0 24 24">
        <path d="M12 2l10 18H2L12 2z" stroke="currentColor" stroke-width="2" fill="none"/>
        <path d="M12 9v4m0 4h.01" stroke="currentColor" stroke-width="2" stroke-linecap="round"/>
    </symbol>

    <!-- DOCUMENTACIÓN -->
    <symbol id="i-documentacion" viewBox="0 0 24 24">
        <path d="M6 2h9l5 5v15H6z" stroke="currentColor" stroke-width="2" fill="none"/>
        <path d="M9 12h6M9 16h4" stroke="currentColor" stroke-width="2" stroke-linecap="round"/>
    </symbol>

    <!-- ECONOMÍA -->
    <symbol id="i-economia" viewBox="0 0 24 24">
        <path d="M4 18V8m4 10V4m4 14v-6m4 6V10m4 8V6" stroke="currentColor" stroke-width="2" stroke-linecap="round"/>
    </symbol>

    <!-- IMPUESTOS -->
    <symbol id="i-impuestos" viewBox="0 0 24 24">
        <circle cx="12" cy="12" r="9" stroke="currentColor" stroke-width="2" fill="none"/>
        <path d="M8 12h8M12 8v8" stroke="currentColor" stroke-width="2" stroke-linecap="round"/>
    </symbol>

    <!-- NOTARÍA CON VIDEOCONFERENCIA -->
    <symbol id="i-notaria-con" viewBox="0 0 24 24">
        <rect x="3" y="5" width="14" height="14" rx="2" stroke="currentColor" stroke-width="2" fill="none"/>
        <path d="M17 10l4-2v8l-4-2" stroke="currentColor" stroke-width="2" stroke-linecap="round"/>
    </symbol>

    <!-- NOTARÍA SIN VIDEOCONFERENCIA -->
    <symbol id="i-notaria-sin" viewBox="0 0 24 24">
        <rect x="3" y="5" width="14" height="14" rx="2" stroke="currentColor" stroke-width="2" fill="none"/>
        <path d="M17 10l4-2v8l-4-2" stroke="currentColor" stroke-width="2" stroke-linecap="round"/>
        <path d="M4 4l16 16" stroke="currentColor" stroke-width="2" stroke-linecap="round"/>
    </symbol>

    <!-- REGISTRO -->
    <symbol id="i-registro" viewBox="0 0 24 24">
        <path d="M4 4h16v16H4z" stroke="currentColor" stroke-width="2" fill="none"/>
        <path d="M8 8h8M8 12h6M8 16h4" stroke="currentColor" stroke-width="2" stroke-linecap="round"/>
    </symbol>

   <!-- DASHBOARD -->
<symbol id="i-dashboard" viewBox="0 0 24 24">
    <path d="M3 13h8V3H3v10zm10 8h8V3h-8v18z" stroke="currentColor" stroke-width="2" fill="none"/>
</symbol>

<!-- CALENDAR -->
<symbol id="i-calendar" viewBox="0 0 24 24">
    <rect x="3" y="5" width="18" height="16" rx="2" stroke="currentColor" stroke-width="2" fill="none"/>
    <path d="M3 10h18M8 3v4M16 3v4" stroke="currentColor" stroke-width="2" stroke-linecap="round"/>
</symbol>

<!-- FACTURA -->
<symbol id="i-factura" viewBox="0 0 24 24">
    <path d="M6 2h9l5 5v15H6z" stroke="currentColor" stroke-width="2" fill="none"/>
    <path d="M9 12h6M9 16h4" stroke="currentColor" stroke-width="2" stroke-linecap="round"/>
</symbol>

<!-- CTN -->
<symbol id="i-ctn" viewBox="0 0 24 24">
    <path d="M4 4h16v16H4z" stroke="currentColor" stroke-width="2" fill="none"/>
    <path d="M8 8h8M8 12h6M8 16h4" stroke="currentColor" stroke-width="2" stroke-linecap="round"/>
</symbol>

<!-- MAIL -->
<symbol id="i-mail" viewBox="0 0 24 24">
    <rect x="3" y="5" width="18" height="14" rx="2" stroke="currentColor" stroke-width="2" fill="none"/>
    <path d="M3 7l9 6 9-6" stroke="currentColor" stroke-width="2" stroke-linecap="round"/>
</symbol>

<!-- TOOLS -->
<symbol id="i-tools" viewBox="0 0 24 24">
    <path d="M14 3l7 7-4 4-7-7 4-4zM3 21l6-6" stroke="currentColor" stroke-width="2" stroke-linecap="round"/>
</symbol>

<!-- FUSION -->
<symbol id="i-fusion" viewBox="0 0 24 24">
    <circle cx="8" cy="12" r="4" stroke="currentColor" stroke-width="2" fill="none"/>
    <circle cx="16" cy="12" r="4" stroke="currentColor" stroke-width="2" fill="none"/>
</symbol>

<!-- WEB -->
<symbol id="i-web" viewBox="0 0 24 24">
    <circle cx="12" cy="12" r="9" stroke="currentColor" stroke-width="2" fill="none"/>
    <path d="M3 12h18M12 3a15 15 0 010 18M12 3a15 15 0 000 18" stroke="currentColor" stroke-width="2"/>
</symbol>

<!-- SETTINGS -->
<symbol id="i-settings" viewBox="0 0 24 24">
    <circle cx="12" cy="12" r="3" stroke="currentColor" stroke-width="2" fill="none"/>
    <path d="M19 12a7 7 0 01-.3 2l2.1 1.6-2 3.5-2.5-1a7 7 0 01-2 1.3l-.4 2.7h-4l-.4-2.7a7 7 0 01-2-1.3l-2.5 1-2-3.5 2.1-1.6A7 7 0 015 12a7 7 0 01.3-2L3.2 8.4l2-3.5 2.5 1A7 7 0 0110 4.6L10.4 2h4l.4 2.7a7 7 0 012 1.3l2.5-1 2 3.5-2.1 1.6c.2.6.3 1.3.3 2z" stroke="currentColor" stroke-width="2" fill="none"/>
</symbol>

<!-- PACKAGE -->
<symbol id="i-package" viewBox="0 0 24 24">
    <path d="M3 7l9-4 9 4v10l-9 4-9-4V7z" stroke="currentColor" stroke-width="2" fill="none"/>
    <path d="M3 7l9 4 9-4" stroke="currentColor" stroke-width="2" stroke-linecap="round"/>
</symbol>

</svg>
